<svg width="1396" height="740" viewBox="0 0 1396 740" fill="none" xmlns="http://www.w3.org/2000/svg">
<rect x="2" y="740" width="2" height="1394" transform="rotate(-90 2 740)" fill="#ECECEC" fill-opacity="0.15"/>
<rect x="2" y="84" width="2" height="1394" transform="rotate(-90 2 84)" fill="#ECECEC" fill-opacity="0.15"/>
<rect x="2" y="412" width="2" height="1394" transform="rotate(-90 2 412)" fill="#ECECEC" fill-opacity="0.15"/>
<rect x="2" y="576" width="2" height="1394" transform="rotate(-90 2 576)" fill="#ECECEC" fill-opacity="0.15"/>
<rect x="2" y="248" width="2" height="1394" transform="rotate(-90 2 248)" fill="#ECECEC" fill-opacity="0.15"/>
<rect x="2" y="658" width="2" height="1394" transform="rotate(-90 2 658)" fill="#ECECEC" fill-opacity="0.15"/>
<rect x="2" y="2.00024" width="2" height="1394" transform="rotate(-90 2 2.00024)" fill="#ECECEC" fill-opacity="0.15"/>
<rect x="2" y="330" width="2" height="1394" transform="rotate(-90 2 330)" fill="#ECECEC" fill-opacity="0.15"/>
<rect x="2" y="494" width="2" height="1394" transform="rotate(-90 2 494)" fill="#ECECEC" fill-opacity="0.15"/>
<rect x="2" y="166" width="2" height="1394" transform="rotate(-90 2 166)" fill="#ECECEC" fill-opacity="0.15"/>
<rect x="2" y="700" width="2" height="1394" transform="rotate(-90 2 700)" fill="#ECECEC" fill-opacity="0.15"/>
<rect x="2" y="44" width="2" height="1394" transform="rotate(-90 2 44)" fill="#ECECEC" fill-opacity="0.15"/>
<rect x="2" y="372" width="2" height="1394" transform="rotate(-90 2 372)" fill="#ECECEC" fill-opacity="0.15"/>
<rect x="2" y="536" width="2" height="1394" transform="rotate(-90 2 536)" fill="#ECECEC" fill-opacity="0.15"/>
<rect x="2" y="208" width="2" height="1394" transform="rotate(-90 2 208)" fill="#ECECEC" fill-opacity="0.15"/>
<rect x="2" y="618" width="2" height="1394" transform="rotate(-90 2 618)" fill="#ECECEC" fill-opacity="0.15"/>
<rect x="2" y="290" width="2" height="1394" transform="rotate(-90 2 290)" fill="#ECECEC" fill-opacity="0.15"/>
<rect x="2" y="454" width="2" height="1394" transform="rotate(-90 2 454)" fill="#ECECEC" fill-opacity="0.15"/>
<rect x="2" y="126" width="2" height="1394" transform="rotate(-90 2 126)" fill="#ECECEC" fill-opacity="0.15"/>
<rect width="2" height="740" fill="#ECECEC" fill-opacity="0.15"/>
<rect x="656" width="2" height="740" fill="#ECECEC" fill-opacity="0.15"/>
<rect x="328" width="2" height="740" fill="#ECECEC" fill-opacity="0.15"/>
<rect x="984" width="2" height="740" fill="#ECECEC" fill-opacity="0.15"/>
<rect x="164" width="2" height="740" fill="#ECECEC" fill-opacity="0.15"/>
<rect x="820" width="2" height="740" fill="#ECECEC" fill-opacity="0.15"/>
<rect x="492" width="2" height="740" fill="#ECECEC" fill-opacity="0.15"/>
<rect x="1148" width="2" height="740" fill="#ECECEC" fill-opacity="0.15"/>
<rect x="1312" width="2" height="740" fill="#ECECEC" fill-opacity="0.15"/>
<rect x="82" width="2" height="740" fill="#ECECEC" fill-opacity="0.15"/>
<rect x="738" width="2" height="740" fill="#ECECEC" fill-opacity="0.15"/>
<rect x="410" width="2" height="740" fill="#ECECEC" fill-opacity="0.15"/>
<rect x="1066" width="2" height="740" fill="#ECECEC" fill-opacity="0.15"/>
<rect x="246" width="2" height="740" fill="#ECECEC" fill-opacity="0.15"/>
<rect x="902" width="2" height="740" fill="#ECECEC" fill-opacity="0.15"/>
<rect x="574" width="2" height="740" fill="#ECECEC" fill-opacity="0.15"/>
<rect x="1230" width="2" height="740" fill="#ECECEC" fill-opacity="0.15"/>
<rect x="1394" width="2" height="740" fill="#ECECEC" fill-opacity="0.15"/>
<rect x="613" width="2" height="740" fill="#ECECEC" fill-opacity="0.15"/>
<rect x="285" width="2" height="740" fill="#ECECEC" fill-opacity="0.15"/>
<rect x="941" width="2" height="740" fill="#ECECEC" fill-opacity="0.15"/>
<rect x="121" width="2" height="740" fill="#ECECEC" fill-opacity="0.15"/>
<rect x="777" width="2" height="740" fill="#ECECEC" fill-opacity="0.15"/>
<rect x="449" width="2" height="740" fill="#ECECEC" fill-opacity="0.15"/>
<rect x="1105" width="2" height="740" fill="#ECECEC" fill-opacity="0.15"/>
<rect x="1269" width="2" height="740" fill="#ECECEC" fill-opacity="0.15"/>
<rect x="39" width="2" height="740" fill="#ECECEC" fill-opacity="0.15"/>
<rect x="695" width="2" height="740" fill="#ECECEC" fill-opacity="0.15"/>
<rect x="367" width="2" height="740" fill="#ECECEC" fill-opacity="0.15"/>
<rect x="1023" width="2" height="740" fill="#ECECEC" fill-opacity="0.15"/>
<rect x="203" width="2" height="740" fill="#ECECEC" fill-opacity="0.15"/>
<rect x="859" width="2" height="740" fill="#ECECEC" fill-opacity="0.15"/>
<rect x="531" width="2" height="740" fill="#ECECEC" fill-opacity="0.15"/>
<rect x="1187" width="2" height="740" fill="#ECECEC" fill-opacity="0.15"/>
<rect x="1351" width="2" height="740" fill="#ECECEC" fill-opacity="0.15"/>
</svg>
