<svg width="398" height="145" viewBox="0 0 398 145" fill="none" xmlns="http://www.w3.org/2000/svg">
<path d="M141.556 26.7366C140.33 26.7366 139.336 27.7305 139.336 28.9565V40.351C139.336 41.577 140.33 42.5708 141.556 42.5708H174.117C179.95 42.5708 184.679 47.2992 184.679 53.132C184.679 58.9649 179.95 63.6933 174.117 63.6933H141.556C140.33 63.6933 139.336 64.6871 139.336 65.9131V77.185C139.336 78.411 140.33 79.4048 141.556 79.4048H176.954C183.168 79.4048 188.205 84.4421 188.205 90.6558C188.205 96.8696 183.168 101.907 176.954 101.907H130.49C123.134 101.907 117.171 95.9438 117.171 88.5879V17.5536C117.171 10.1977 123.134 4.23462 130.49 4.23462L176.954 4.23462C183.168 4.23462 188.205 9.27187 188.205 15.4856C188.205 21.6994 183.168 26.7366 176.954 26.7366H141.556Z" fill="#313140"/>
<path d="M12.7305 131.983C12.7305 131.983 111.362 114.792 175.213 109.952C256.905 103.759 385 109.952 385 109.952" stroke="url(#paint0_linear_326_27)" stroke-width="24.6809" stroke-linecap="round"/>
<path d="M247.236 103.017C238.076 103.017 229.649 100.864 221.954 96.5587C214.351 92.2534 208.305 86.2993 203.817 78.6963C199.328 71.0934 197.084 62.5286 197.084 53.002C197.084 43.4753 199.328 34.9106 203.817 27.3076C208.305 19.7046 214.351 13.7963 221.954 9.58258C229.649 5.27728 238.076 3.12463 247.236 3.12463C256.397 3.12463 264.778 5.27728 272.381 9.58258C279.984 13.7963 285.984 19.7046 290.381 27.3076C294.869 34.9106 297.114 43.4753 297.114 53.002C297.114 62.5286 294.869 71.0934 290.381 78.6963C285.984 86.2993 279.938 92.2534 272.244 96.5587C264.641 100.864 256.305 103.017 247.236 103.017ZM247.236 74.5742C253.282 74.5742 257.954 72.6506 261.251 68.8033C264.549 64.8644 266.198 59.5973 266.198 53.002C266.198 46.315 264.549 41.0479 261.251 37.2006C257.954 33.2617 253.282 31.2923 247.236 31.2923C241.099 31.2923 236.382 33.2617 233.084 37.2006C229.786 41.0479 228.137 46.315 228.137 53.002C228.137 59.5973 229.786 64.8644 233.084 68.8033C236.382 72.6506 241.099 74.5742 247.236 74.5742Z" fill="#313140"/>
<path d="M11.729 51.6637C11.729 41.7939 13.703 33.0051 17.6509 25.2973C21.6928 17.5894 27.4267 11.6206 34.8525 7.39064C42.2783 3.06674 51.0202 0.904785 61.0779 0.904785C69.7257 0.904785 77.4336 2.54975 84.2014 5.83968C91.0633 9.03561 96.6092 13.5945 100.839 19.5164C107.798 29.0469 98.6032 40.2429 86.8025 40.2429H85.1544C79.8494 40.2429 75.3618 36.6648 71.1417 33.4502C70.7618 33.1608 70.3681 32.8871 69.9607 32.6291C67.2348 30.7491 64.0859 29.8092 60.514 29.8092C55.2501 29.8092 51.0672 31.7831 47.9652 35.731C44.9573 39.6789 43.4533 44.9898 43.4533 51.6637C43.4533 58.3375 44.9573 63.6484 47.9652 67.5963C51.0672 71.5443 55.2501 73.5182 60.514 73.5182C64.0859 73.5182 67.2348 72.6252 69.9607 70.8393C70.3893 70.5536 70.8026 70.2516 71.2007 69.9334C75.3446 66.6211 79.8494 63.0844 85.1544 63.0844H86.8025C98.6032 63.0844 107.798 74.2804 100.839 83.811C96.6092 89.7329 91.0633 94.3388 84.2014 97.6287C77.4336 100.825 69.7257 102.423 61.0779 102.423C51.0202 102.423 42.2783 100.308 34.8525 96.0777C27.4267 91.7538 21.6928 85.7379 17.6509 78.0301C13.703 70.3223 11.729 61.5335 11.729 51.6637Z" fill="#313140"/>
<path d="M335.199 65.7972C335.199 70.691 339.166 74.6581 344.06 74.6581H357.829C365.314 74.6581 371.381 80.7253 371.381 88.2095C371.381 95.6937 365.314 101.761 357.829 101.761H332.967C316.912 101.761 303.897 88.7459 303.897 72.6911V17.5857C303.897 8.94209 310.905 1.93506 319.548 1.93506C328.192 1.93506 335.199 8.9421 335.199 17.5857V65.7972Z" fill="#313140"/>
<defs>
<linearGradient id="paint0_linear_326_27" x1="385" y1="107.302" x2="72.7313" y2="259.396" gradientUnits="userSpaceOnUse">
<stop stop-color="#909BF9"/>
<stop offset="1" stop-color="#F9AADD"/>
</linearGradient>
</defs>
</svg>
